<svg xmlns="http://www.w3.org/2000/svg" viewBox="0 0 800 300" width="800" height="300" preserveAspectRatio="xMidYMid slice"><defs><linearGradient id="book2-sky-morning" x1="0" y1="0" x2="0" y2="1"><stop offset="0" stop-color="#c9e2ea"></stop><stop offset=".62" stop-color="#f3e6cc"></stop><stop offset="1" stop-color="#fbe7c4"></stop></linearGradient><linearGradient id="book2-sky-day" x1="0" y1="0" x2="0" y2="1"><stop offset="0" stop-color="#aed3e3"></stop><stop offset=".62" stop-color="#d9ebe6"></stop><stop offset="1" stop-color="#f1f0df"></stop></linearGradient><linearGradient id="book2-sky-evening" x1="0" y1="0" x2="0" y2="1"><stop offset="0" stop-color="#8b8fb8"></stop><stop offset=".62" stop-color="#e7b08c"></stop><stop offset="1" stop-color="#f6dcae"></stop></linearGradient><linearGradient id="book2-sky-dusk" x1="0" y1="0" x2="0" y2="1"><stop offset="0" stop-color="#57608f"></stop><stop offset=".62" stop-color="#c98a86"></stop><stop offset="1" stop-color="#f3c48f"></stop></linearGradient><linearGradient id="book2-sky-night" x1="0" y1="0" x2="0" y2="1"><stop offset="0" stop-color="#121a31"></stop><stop offset=".62" stop-color="#26324f"></stop><stop offset="1" stop-color="#3e4566"></stop></linearGradient><linearGradient id="book2-sky-rain" x1="0" y1="0" x2="0" y2="1"><stop offset="0" stop-color="#8f9ea8"></stop><stop offset=".62" stop-color="#b8c3c3"></stop><stop offset="1" stop-color="#d9ddd4"></stop></linearGradient><radialGradient id="book2-sun"><stop offset="0" stop-color="#fff4c7" stop-opacity="1"></stop><stop offset=".35" stop-color="#ffe19a" stop-opacity=".75"></stop><stop offset="1" stop-color="#ffe19a" stop-opacity="0"></stop></radialGradient><radialGradient id="book2-lamp"><stop offset="0" stop-color="#ffe3a3" stop-opacity=".95"></stop><stop offset=".4" stop-color="#ffd07a" stop-opacity=".45"></stop><stop offset="1" stop-color="#ffd07a" stop-opacity="0"></stop></radialGradient><radialGradient id="book2-fire"><stop offset="0" stop-color="#ffcf7a" stop-opacity=".95"></stop><stop offset=".45" stop-color="#f39a52" stop-opacity=".4"></stop><stop offset="1" stop-color="#f39a52" stop-opacity="0"></stop></radialGradient><radialGradient id="book2-moon"><stop offset="0" stop-color="#fff6d8" stop-opacity=".7"></stop><stop offset="1" stop-color="#fff6d8" stop-opacity="0"></stop></radialGradient><linearGradient id="book2-beam" x1="0" y1="0" x2="0" y2="1"><stop offset="0" stop-color="#fff7de" stop-opacity=".7"></stop><stop offset="1" stop-color="#fff7de" stop-opacity="0"></stop></linearGradient><linearGradient id="book2-wall-warm" x1="0" y1="0" x2="0" y2="1"><stop offset="0" stop-color="#f4e4cb"></stop><stop offset="1" stop-color="#e8d0ae"></stop></linearGradient><linearGradient id="book2-wall-night" x1="0" y1="0" x2="0" y2="1"><stop offset="0" stop-color="#3b3f5a"></stop><stop offset="1" stop-color="#4f4d62"></stop></linearGradient><linearGradient id="book2-floor" x1="0" y1="0" x2="0" y2="1"><stop offset="0" stop-color="#c19466"></stop><stop offset="1" stop-color="#9a6c45"></stop></linearGradient><linearGradient id="book2-grass" x1="0" y1="0" x2="0" y2="1"><stop offset="0" stop-color="#a9c58c"></stop><stop offset="1" stop-color="#7c9f68"></stop></linearGradient><linearGradient id="book2-sea" x1="0" y1="0" x2="0" y2="1"><stop offset="0" stop-color="#6fa6b8"></stop><stop offset="1" stop-color="#2f6a86"></stop></linearGradient><linearGradient id="book2-sand" x1="0" y1="0" x2="0" y2="1"><stop offset="0" stop-color="#efdcae"></stop><stop offset="1" stop-color="#d9bd88"></stop></linearGradient><linearGradient id="book2-stone" x1="0" y1="0" x2="1" y2="1"><stop offset="0" stop-color="#c9c2b6"></stop><stop offset="1" stop-color="#9f978b"></stop></linearGradient><radialGradient id="book2-vignette" cx=".5" cy=".45" r=".75"><stop offset=".62" stop-color="#2b2a26" stop-opacity="0"></stop><stop offset="1" stop-color="#2b2a26" stop-opacity=".2"></stop></radialGradient><filter id="book2-grain" x="0" y="0" width="100%" height="100%"><feTurbulence type="fractalNoise" baseFrequency=".85" numOctaves="2" stitchTiles="stitch"></feTurbulence><feColorMatrix values="0 0 0 0 .17 0 0 0 0 .16 0 0 0 0 .15 0 0 0 .07 0"></feColorMatrix></filter></defs><rect width="800" height="300" fill="url(#book2-sky-day)"></rect><g transform="translate(560 46) scale(0.8)" opacity="0.92"><path d="M-62 14 C-70 -6 -48 -22 -30 -12 C-24 -34 8 -40 20 -18 C34 -30 60 -20 58 0 C74 2 76 20 58 22 L-54 22 C-66 22 -70 18 -62 14Z" fill="#fffaf0"></path></g><g><rect x="-10" y="40" width="140" height="180" fill="#d7c4ae" stroke="#2b2a26" stroke-width="2.2" stroke-linecap="round" stroke-linejoin="round"></rect><rect x="4" y="56" width="32" height="25" rx="2" fill="#cfe0e6" stroke="#2b2a26" stroke-opacity=".5" stroke-width="1.4"></rect><rect x="44" y="56" width="32" height="25" rx="2" fill="#cfe0e6" stroke="#2b2a26" stroke-opacity=".5" stroke-width="1.4"></rect><rect x="84" y="56" width="32" height="25" rx="2" fill="#cfe0e6" stroke="#2b2a26" stroke-opacity=".5" stroke-width="1.4"></rect><rect x="4" y="91" width="32" height="25" rx="2" fill="#cfe0e6" stroke="#2b2a26" stroke-opacity=".5" stroke-width="1.4"></rect><rect x="44" y="91" width="32" height="25" rx="2" fill="#cfe0e6" stroke="#2b2a26" stroke-opacity=".5" stroke-width="1.4"></rect><rect x="84" y="91" width="32" height="25" rx="2" fill="#cfe0e6" stroke="#2b2a26" stroke-opacity=".5" stroke-width="1.4"></rect><rect x="4" y="126" width="32" height="25" rx="2" fill="#cfe0e6" stroke="#2b2a26" stroke-opacity=".5" stroke-width="1.4"></rect><rect x="44" y="126" width="32" height="25" rx="2" fill="#cfe0e6" stroke="#2b2a26" stroke-opacity=".5" stroke-width="1.4"></rect><rect x="84" y="126" width="32" height="25" rx="2" fill="#cfe0e6" stroke="#2b2a26" stroke-opacity=".5" stroke-width="1.4"></rect><rect x="4" y="161" width="32" height="25" rx="2" fill="#cfe0e6" stroke="#2b2a26" stroke-opacity=".5" stroke-width="1.4"></rect><rect x="44" y="161" width="32" height="25" rx="2" fill="#cfe0e6" stroke="#2b2a26" stroke-opacity=".5" stroke-width="1.4"></rect><rect x="84" y="161" width="32" height="25" rx="2" fill="#cfe0e6" stroke="#2b2a26" stroke-opacity=".5" stroke-width="1.4"></rect></g><g><rect x="120" y="80" width="120" height="140" fill="#c7cfc6" stroke="#2b2a26" stroke-width="2.2" stroke-linecap="round" stroke-linejoin="round"></rect><rect x="134" y="96" width="25.333333333333336" height="23.333333333333336" rx="2" fill="#cfe0e6" stroke="#2b2a26" stroke-opacity=".5" stroke-width="1.4"></rect><rect x="167.33333333333334" y="96" width="25.333333333333336" height="23.333333333333336" rx="2" fill="#cfe0e6" stroke="#2b2a26" stroke-opacity=".5" stroke-width="1.4"></rect><rect x="200.66666666666669" y="96" width="25.333333333333336" height="23.333333333333336" rx="2" fill="#cfe0e6" stroke="#2b2a26" stroke-opacity=".5" stroke-width="1.4"></rect><rect x="134" y="129.33333333333334" width="25.333333333333336" height="23.333333333333336" rx="2" fill="#cfe0e6" stroke="#2b2a26" stroke-opacity=".5" stroke-width="1.4"></rect><rect x="167.33333333333334" y="129.33333333333334" width="25.333333333333336" height="23.333333333333336" rx="2" fill="#cfe0e6" stroke="#2b2a26" stroke-opacity=".5" stroke-width="1.4"></rect><rect x="200.66666666666669" y="129.33333333333334" width="25.333333333333336" height="23.333333333333336" rx="2" fill="#cfe0e6" stroke="#2b2a26" stroke-opacity=".5" stroke-width="1.4"></rect><rect x="134" y="162.66666666666669" width="25.333333333333336" height="23.333333333333336" rx="2" fill="#cfe0e6" stroke="#2b2a26" stroke-opacity=".5" stroke-width="1.4"></rect><rect x="167.33333333333334" y="162.66666666666669" width="25.333333333333336" height="23.333333333333336" rx="2" fill="#cfe0e6" stroke="#2b2a26" stroke-opacity=".5" stroke-width="1.4"></rect><rect x="200.66666666666669" y="162.66666666666669" width="25.333333333333336" height="23.333333333333336" rx="2" fill="#cfe0e6" stroke="#2b2a26" stroke-opacity=".5" stroke-width="1.4"></rect></g><g><rect x="650" y="30" width="160" height="190" fill="#c9b7a4" stroke="#2b2a26" stroke-width="2.2" stroke-linecap="round" stroke-linejoin="round"></rect><rect x="664" y="46" width="38.666666666666664" height="27.5" rx="2" fill="#cfe0e6" stroke="#2b2a26" stroke-opacity=".5" stroke-width="1.4"></rect><rect x="710.6666666666666" y="46" width="38.666666666666664" height="27.5" rx="2" fill="#cfe0e6" stroke="#2b2a26" stroke-opacity=".5" stroke-width="1.4"></rect><rect x="757.3333333333334" y="46" width="38.666666666666664" height="27.5" rx="2" fill="#cfe0e6" stroke="#2b2a26" stroke-opacity=".5" stroke-width="1.4"></rect><rect x="664" y="83.5" width="38.666666666666664" height="27.5" rx="2" fill="#cfe0e6" stroke="#2b2a26" stroke-opacity=".5" stroke-width="1.4"></rect><rect x="710.6666666666666" y="83.5" width="38.666666666666664" height="27.5" rx="2" fill="#cfe0e6" stroke="#2b2a26" stroke-opacity=".5" stroke-width="1.4"></rect><rect x="757.3333333333334" y="83.5" width="38.666666666666664" height="27.5" rx="2" fill="#cfe0e6" stroke="#2b2a26" stroke-opacity=".5" stroke-width="1.4"></rect><rect x="664" y="121" width="38.666666666666664" height="27.5" rx="2" fill="#cfe0e6" stroke="#2b2a26" stroke-opacity=".5" stroke-width="1.4"></rect><rect x="710.6666666666666" y="121" width="38.666666666666664" height="27.5" rx="2" fill="#cfe0e6" stroke="#2b2a26" stroke-opacity=".5" stroke-width="1.4"></rect><rect x="757.3333333333334" y="121" width="38.666666666666664" height="27.5" rx="2" fill="#cfe0e6" stroke="#2b2a26" stroke-opacity=".5" stroke-width="1.4"></rect><rect x="664" y="158.5" width="38.666666666666664" height="27.5" rx="2" fill="#cfe0e6" stroke="#2b2a26" stroke-opacity=".5" stroke-width="1.4"></rect><rect x="710.6666666666666" y="158.5" width="38.666666666666664" height="27.5" rx="2" fill="#cfe0e6" stroke="#2b2a26" stroke-opacity=".5" stroke-width="1.4"></rect><rect x="757.3333333333334" y="158.5" width="38.666666666666664" height="27.5" rx="2" fill="#cfe0e6" stroke="#2b2a26" stroke-opacity=".5" stroke-width="1.4"></rect></g><g transform="translate(470 230) scale(0.8)"><ellipse cx="0" cy="0" rx="46" ry="8.28" fill="#2b2a26" opacity="0.16"></ellipse><path d="M-7 0 C-5 -30 -8 -56 -4 -80 L6 -80 C8 -54 5 -28 8 0Z" fill="#7a5a40"></path><path d="M-2 -60 C-16 -70 -22 -76 -26 -86M4 -68 C16 -76 22 -84 24 -94" fill="none" stroke="#7a5a40" stroke-width="5" stroke-linecap="round"></path><circle cx="-30" cy="-102" r="34" fill="#557d56"></circle><circle cx="28" cy="-108" r="36" fill="#557d56"></circle><circle cx="0" cy="-132" r="40" fill="#6f9a6b"></circle><circle cx="-26" cy="-110" r="28" fill="#6f9a6b"></circle><circle cx="24" cy="-116" r="30" fill="#6f9a6b"></circle><circle cx="-8" cy="-146" r="18" fill="#fff" opacity=".12"></circle></g><rect x="0" y="220" width="800" height="200" fill="#d8cdb6"></rect><g><rect x="250" y="96" width="170" height="140" fill="#e7d2b4" stroke="#2b2a26" stroke-width="2.4" stroke-linecap="round" stroke-linejoin="round"></rect><rect x="262" y="163.2" width="95.2" height="61.6" rx="3" fill="#d7e6ea" stroke="#2b2a26" stroke-width="2" stroke-linecap="round" stroke-linejoin="round"></rect><svg x="262" y="163.2" width="95.2" height="61.6" viewBox="0 0 95.2 61.6"></svg><rect x="372.4" y="152" width="34" height="84" fill="#6f8a8a" stroke="#2b2a26" stroke-width="2" stroke-linecap="round" stroke-linejoin="round"></rect><path d="M242 135.2 h26.571428571428573 l-4 26 q-9.285714285714286 10 -18.571428571428573 0Z" fill="#6f9a6b" stroke="#2b2a26" stroke-width="1.8" stroke-linecap="round" stroke-linejoin="round"></path><path d="M268.57142857142856 135.2 h26.571428571428573 l-4 26 q-9.285714285714286 10 -18.571428571428573 0Z" fill="#fbf5ec" stroke="#2b2a26" stroke-width="1.8" stroke-linecap="round" stroke-linejoin="round"></path><path d="M295.14285714285717 135.2 h26.571428571428573 l-4 26 q-9.285714285714286 10 -18.571428571428573 0Z" fill="#6f9a6b" stroke="#2b2a26" stroke-width="1.8" stroke-linecap="round" stroke-linejoin="round"></path><path d="M321.7142857142857 135.2 h26.571428571428573 l-4 26 q-9.285714285714286 10 -18.571428571428573 0Z" fill="#fbf5ec" stroke="#2b2a26" stroke-width="1.8" stroke-linecap="round" stroke-linejoin="round"></path><path d="M348.2857142857143 135.2 h26.571428571428573 l-4 26 q-9.285714285714286 10 -18.571428571428573 0Z" fill="#6f9a6b" stroke="#2b2a26" stroke-width="1.8" stroke-linecap="round" stroke-linejoin="round"></path><path d="M374.8571428571429 135.2 h26.571428571428573 l-4 26 q-9.285714285714286 10 -18.571428571428573 0Z" fill="#fbf5ec" stroke="#2b2a26" stroke-width="1.8" stroke-linecap="round" stroke-linejoin="round"></path><path d="M401.42857142857144 135.2 h26.571428571428573 l-4 26 q-9.285714285714286 10 -18.571428571428573 0Z" fill="#6f9a6b" stroke="#2b2a26" stroke-width="1.8" stroke-linecap="round" stroke-linejoin="round"></path></g><g><ellipse cx="560" cy="264" rx="90" ry="16.2" fill="#2b2a26" opacity="0.16"></ellipse><path d="M474 262 V236 H646 V262Z" fill="#c9c2b6" stroke="#2b2a26" stroke-width="2.2" stroke-linecap="round" stroke-linejoin="round"></path><ellipse cx="560" cy="236" rx="86" ry="14" fill="#8fb8c8" stroke="#2b2a26" stroke-width="2.2" stroke-linecap="round" stroke-linejoin="round"></ellipse><path d="M552 236 V192 H568 V236" fill="#c9c2b6" stroke="#2b2a26" stroke-width="2" stroke-linecap="round" stroke-linejoin="round"></path><ellipse cx="560" cy="190" rx="32" ry="7" fill="#c9c2b6" stroke="#2b2a26" stroke-width="2" stroke-linecap="round" stroke-linejoin="round"></ellipse><path d="M560 184 C550 152 520 162 512 228 M560 184 C570 152 600 162 608 228" fill="none" stroke="#dcecf2" stroke-width="4" stroke-linecap="round"></path></g><g><path d="M220 272 V112" stroke="#3e4450" stroke-width="6" stroke-linecap="round"></path><path d="M206 114 L211 86 H229 L234 114Z" fill="#dfe4e6" stroke="#2b2a26" stroke-width="2" stroke-linecap="round" stroke-linejoin="round"></path><rect x="210" y="264" width="20" height="8" fill="#3e4450"></rect></g><g transform="translate(440 290) scale(0.9 0.9)"><ellipse cx="0" cy="0" rx="28.5" ry="5.13" fill="#2b2a26" opacity="0.16"></ellipse><g transform="translate(0 -124)"><g><path d="M11.899999999999999 -9.350000000000001 C32.3 -10.2 35.7 10.2 26.35 25.5 C23.799999999999997 11.899999999999999 20.4 1.7000000000000002 11.899999999999999 -0.8500000000000001Z" fill="#34221c"></path><circle cx="16.15" cy="-7.14" r="3.4000000000000004" fill="#b82347"></circle></g></g><path d="M-7 -38 L-16 1.36 L-23 0" fill="none" stroke="#3c3b48" stroke-width="9" stroke-linecap="round" stroke-linejoin="round"></path><path d="M7 -38 L13 5.44 L21 -2" fill="none" stroke="#3c3b48" stroke-width="9" stroke-linecap="round" stroke-linejoin="round"></path><path d="M-7 -38 L-16 1.36 L-23 0" fill="none" stroke="#2b2a26" stroke-width="1.2" stroke-linecap="round" opacity=".25"></path><path d="M7 -38 L13 5.44 L21 -2" fill="none" stroke="#2b2a26" stroke-width="1.2" stroke-linecap="round" opacity=".25"></path><ellipse cx="-27" cy="-2" rx="6.8" ry="4" fill="#8a3b2e"></ellipse><ellipse cx="26" cy="-4" rx="6.8" ry="4" fill="#8a3b2e"></ellipse><path d="M-13 -101 C-19 -97 -17 -78 -12 -68 L-25 -42 L25 -42 L12 -68 C17 -78 19 -97 13 -101Z" fill="#4f8a7b" stroke="#2b2a26" stroke-width="2" stroke-linecap="round" stroke-linejoin="round"></path><path d="M-9 -102 L0 -93 L9 -102" fill="#f6ecd8" stroke="#2b2a26" stroke-width="1.6" stroke-linecap="round" stroke-linejoin="round"></path><g><path d="M-12 -97 L-17.759999999999998 -79 L-19.2 -61" fill="none" stroke="#4f8a7b" stroke-width="8" stroke-linecap="round" stroke-linejoin="round"></path><path d="M-12 -97 L-17.759999999999998 -79 L-19.2 -61" fill="none" stroke="#2b2a26" stroke-width="1.2" stroke-linecap="round" opacity=".22"></path><circle cx="-19.2" cy="-61" r="4.48" fill="#efc6a0"></circle></g><g><path d="M12 -97 L20.64 -76.84 L1.200000000000001 -74.68" fill="none" stroke="#4f8a7b" stroke-width="8" stroke-linecap="round" stroke-linejoin="round"></path><path d="M12 -97 L20.64 -76.84 L1.200000000000001 -74.68" fill="none" stroke="#2b2a26" stroke-width="1.2" stroke-linecap="round" opacity=".22"></path><circle cx="1.200000000000001" cy="-74.68" r="4.48" fill="#efc6a0"></circle></g><g transform="translate(0 -124)"><rect x="-4" y="13" width="8" height="8" fill="#efc6a0"></rect><circle cx="-17" cy="2" r="3.4" fill="#efc6a0"></circle><circle cx="17" cy="2" r="3.4" fill="#efc6a0"></circle><circle cx="0" cy="0" r="17" fill="#efc6a0" stroke="#2b2a26" stroke-width="1.6" stroke-linecap="round" stroke-linejoin="round"></circle><g><g fill="#2b2a26"><ellipse cx="-6.46" cy="-1.36" rx="2.2" ry="2.7"></ellipse><ellipse cx="6.46" cy="-1.36" rx="2.2" ry="2.7"></ellipse><circle cx="-5.66" cy="-2.3600000000000003" r=".7" fill="#fff"></circle><circle cx="7.26" cy="-2.3600000000000003" r=".7" fill="#fff"></circle></g><path d="M-11.46 -6.36 L-2.46 -9.36 M11.46 -6.36 L2.46 -9.36" fill="none" stroke="#34221c" stroke-width="1.6" stroke-linecap="round" stroke-linejoin="round"></path><path d="M-3.5 8.64 q3.5 -2.5 7 0" fill="none" stroke="#2b2a26" stroke-width="1.7" stroke-linecap="round" stroke-linejoin="round"></path><circle cx="-9.86" cy="4.760000000000001" r="3.4000000000000004" fill="#e98f84" opacity=".35"></circle><circle cx="9.86" cy="4.760000000000001" r="3.4000000000000004" fill="#e98f84" opacity=".35"></circle></g><path d="M-18.02 -0.34 C-18.700000000000003 -20.4 18.700000000000003 -22.1 18.02 -1.02 C10.2 -8.5 1.7000000000000002 -12.24 -2.55 -8.5 C-7.65 -12.24 -13.600000000000001 -8.5 -18.02 -0.34Z" fill="#34221c"></path></g><g transform="translate(1.200000000000001 -74.68)"><rect x="-13" y="-16" width="26" height="30" rx="2" fill="#fbf5ec" stroke="#2b2a26" stroke-width="2" stroke-linecap="round" stroke-linejoin="round"></rect><circle cx="0" cy="-4" r="6" fill="#232220"></circle><path d="M-5 -8 l1 -6 3 4M5 -8 l-1 -6 -3 4" fill="#232220"></path><path d="M-8 8 q8 -8 16 0" fill="#232220"></path><circle cx="-2" cy="-5" r="1" fill="#9ad36f"></circle><circle cx="2.4" cy="-5" r="1" fill="#9ad36f"></circle></g></g><g transform="translate(600 70) scale(0.7)" fill="none" stroke="#2b2a26" stroke-width="2.4" stroke-linecap="round" opacity=".7"><path d="M-9 0 q5 -6 9 0 q4 -6 9 0"></path><path d="M34 11 q5 -6 9 0 q4 -6 9 0"></path><path d="M77 -10 q5 -6 9 0 q4 -6 9 0"></path><path d="M18 1 q5 -6 9 0 q4 -6 9 0"></path></g><g pointer-events="none"><rect width="800" height="300" fill="url(#book2-vignette)"></rect><rect width="800" height="300" filter="url(#book2-grain)"></rect></g></svg>
